<mxfile host="app.diagrams.net" agent="Mozilla/5.0 (Macintosh; Intel Mac OS X 10_15_7) AppleWebKit/537.36 (KHTML, like Gecko) Chrome/132.0.0.0 Safari/537.36" version="26.0.11">
  <diagram name="Page-1" id="e7e014a7-5840-1c2e-5031-d8a46d1fe8dd">
    <mxGraphModel dx="1840" dy="3030" grid="1" gridSize="10" guides="1" tooltips="1" connect="1" arrows="1" fold="1" page="1" pageScale="1" pageWidth="1169" pageHeight="826" background="none" math="0" shadow="0">
      <root>
        <mxCell id="0" />
        <mxCell id="1" parent="0" />
        <mxCell id="NI65FcXABOgf1kVMYgQY-100" value="no" style="edgeStyle=orthogonalEdgeStyle;html=1;align=left;verticalAlign=bottom;endArrow=open;endSize=8;strokeColor=#ff0000;rounded=0;" edge="1" source="NI65FcXABOgf1kVMYgQY-99" parent="1">
          <mxGeometry x="-0.0935" y="-25" relative="1" as="geometry">
            <mxPoint x="235" y="-130" as="targetPoint" />
            <mxPoint as="offset" />
          </mxGeometry>
        </mxCell>
        <mxCell id="NI65FcXABOgf1kVMYgQY-101" value="yes" style="edgeStyle=orthogonalEdgeStyle;html=1;align=left;verticalAlign=top;endArrow=open;endSize=8;strokeColor=#ff0000;rounded=0;" edge="1" source="NI65FcXABOgf1kVMYgQY-99" parent="1">
          <mxGeometry x="-1" relative="1" as="geometry">
            <mxPoint x="340" y="-187" as="targetPoint" />
          </mxGeometry>
        </mxCell>
        <mxCell id="NI65FcXABOgf1kVMYgQY-119" value="Drummer" style="swimlane;whiteSpace=wrap;startSize=23;" vertex="1" parent="1">
          <mxGeometry x="600" y="-1410" width="340" height="1000" as="geometry" />
        </mxCell>
        <mxCell id="NI65FcXABOgf1kVMYgQY-120" style="edgeStyle=orthogonalEdgeStyle;rounded=0;orthogonalLoop=1;jettySize=auto;html=1;exitX=0.5;exitY=1;exitDx=0;exitDy=0;" edge="1" parent="NI65FcXABOgf1kVMYgQY-119" source="NI65FcXABOgf1kVMYgQY-121">
          <mxGeometry relative="1" as="geometry">
            <mxPoint x="74.84210526315792" y="109.99999999999989" as="targetPoint" />
          </mxGeometry>
        </mxCell>
        <mxCell id="NI65FcXABOgf1kVMYgQY-121" value="" style="ellipse;shape=startState;fillColor=#000000;strokeColor=#ff0000;" vertex="1" parent="NI65FcXABOgf1kVMYgQY-119">
          <mxGeometry x="60" y="40" width="30" height="30" as="geometry" />
        </mxCell>
        <mxCell id="NI65FcXABOgf1kVMYgQY-122" style="edgeStyle=orthogonalEdgeStyle;rounded=0;orthogonalLoop=1;jettySize=auto;html=1;exitX=0.5;exitY=1;exitDx=0;exitDy=0;entryX=0.5;entryY=0;entryDx=0;entryDy=0;" edge="1" parent="NI65FcXABOgf1kVMYgQY-119" source="NI65FcXABOgf1kVMYgQY-123">
          <mxGeometry relative="1" as="geometry">
            <mxPoint x="75" y="270" as="targetPoint" />
          </mxGeometry>
        </mxCell>
        <mxCell id="NI65FcXABOgf1kVMYgQY-123" value="login" style="" vertex="1" parent="NI65FcXABOgf1kVMYgQY-119">
          <mxGeometry x="20" y="182" width="110" height="50" as="geometry" />
        </mxCell>
        <mxCell id="NI65FcXABOgf1kVMYgQY-124" style="edgeStyle=orthogonalEdgeStyle;rounded=0;orthogonalLoop=1;jettySize=auto;html=1;exitX=0.5;exitY=1;exitDx=0;exitDy=0;entryX=0.5;entryY=0;entryDx=0;entryDy=0;" edge="1" parent="NI65FcXABOgf1kVMYgQY-119">
          <mxGeometry relative="1" as="geometry">
            <mxPoint x="75" y="320" as="sourcePoint" />
            <mxPoint x="75" y="353" as="targetPoint" />
          </mxGeometry>
        </mxCell>
        <mxCell id="NI65FcXABOgf1kVMYgQY-126" style="edgeStyle=orthogonalEdgeStyle;rounded=0;orthogonalLoop=1;jettySize=auto;html=1;exitX=0.5;exitY=1;exitDx=0;exitDy=0;entryX=0.5;entryY=0;entryDx=0;entryDy=0;" edge="1" parent="NI65FcXABOgf1kVMYgQY-119" target="NI65FcXABOgf1kVMYgQY-134">
          <mxGeometry relative="1" as="geometry">
            <mxPoint x="75" y="403" as="sourcePoint" />
          </mxGeometry>
        </mxCell>
        <mxCell id="NI65FcXABOgf1kVMYgQY-128" value="has account?" style="rhombus;whiteSpace=wrap;html=1;fontColor=#000000;fillColor=#ffffc0;strokeColor=#ff0000;" vertex="1" parent="NI65FcXABOgf1kVMYgQY-119">
          <mxGeometry x="35" y="112" width="80" height="40" as="geometry" />
        </mxCell>
        <mxCell id="NI65FcXABOgf1kVMYgQY-129" value="no" style="edgeStyle=orthogonalEdgeStyle;html=1;align=left;verticalAlign=bottom;endArrow=open;endSize=8;strokeColor=#ff0000;rounded=0;entryX=0.5;entryY=0;entryDx=0;entryDy=0;" edge="1" parent="NI65FcXABOgf1kVMYgQY-119" source="NI65FcXABOgf1kVMYgQY-128" target="NI65FcXABOgf1kVMYgQY-132">
          <mxGeometry x="-1" relative="1" as="geometry">
            <mxPoint x="310" y="90" as="targetPoint" />
          </mxGeometry>
        </mxCell>
        <mxCell id="NI65FcXABOgf1kVMYgQY-130" value="yes" style="edgeStyle=orthogonalEdgeStyle;html=1;align=left;verticalAlign=top;endArrow=open;endSize=8;strokeColor=#ff0000;rounded=0;entryX=0.5;entryY=0;entryDx=0;entryDy=0;" edge="1" parent="NI65FcXABOgf1kVMYgQY-119" source="NI65FcXABOgf1kVMYgQY-128" target="NI65FcXABOgf1kVMYgQY-123">
          <mxGeometry x="-1" relative="1" as="geometry">
            <mxPoint x="170" y="170" as="targetPoint" />
          </mxGeometry>
        </mxCell>
        <mxCell id="NI65FcXABOgf1kVMYgQY-131" style="edgeStyle=orthogonalEdgeStyle;rounded=0;orthogonalLoop=1;jettySize=auto;html=1;exitX=0;exitY=0.5;exitDx=0;exitDy=0;entryX=1;entryY=0.5;entryDx=0;entryDy=0;" edge="1" parent="NI65FcXABOgf1kVMYgQY-119" source="NI65FcXABOgf1kVMYgQY-132" target="NI65FcXABOgf1kVMYgQY-123">
          <mxGeometry relative="1" as="geometry" />
        </mxCell>
        <mxCell id="NI65FcXABOgf1kVMYgQY-132" value="register" style="" vertex="1" parent="NI65FcXABOgf1kVMYgQY-119">
          <mxGeometry x="220" y="182" width="110" height="50" as="geometry" />
        </mxCell>
        <mxCell id="NI65FcXABOgf1kVMYgQY-133" style="edgeStyle=orthogonalEdgeStyle;rounded=0;orthogonalLoop=1;jettySize=auto;html=1;exitX=0.5;exitY=1;exitDx=0;exitDy=0;entryX=0.5;entryY=0;entryDx=0;entryDy=0;" edge="1" parent="NI65FcXABOgf1kVMYgQY-119" target="NI65FcXABOgf1kVMYgQY-142">
          <mxGeometry relative="1" as="geometry">
            <mxPoint x="75" y="490" as="sourcePoint" />
          </mxGeometry>
        </mxCell>
        <mxCell id="NI65FcXABOgf1kVMYgQY-135" style="edgeStyle=orthogonalEdgeStyle;rounded=0;orthogonalLoop=1;jettySize=auto;html=1;exitX=0.5;exitY=1;exitDx=0;exitDy=0;entryX=0.5;entryY=0;entryDx=0;entryDy=0;" edge="1" parent="NI65FcXABOgf1kVMYgQY-119" target="NI65FcXABOgf1kVMYgQY-138">
          <mxGeometry relative="1" as="geometry">
            <mxPoint x="75" y="653" as="sourcePoint" />
          </mxGeometry>
        </mxCell>
        <mxCell id="NI65FcXABOgf1kVMYgQY-137" style="edgeStyle=orthogonalEdgeStyle;rounded=0;orthogonalLoop=1;jettySize=auto;html=1;exitX=0.5;exitY=1;exitDx=0;exitDy=0;entryX=0.5;entryY=0;entryDx=0;entryDy=0;" edge="1" parent="NI65FcXABOgf1kVMYgQY-119" target="NI65FcXABOgf1kVMYgQY-140">
          <mxGeometry relative="1" as="geometry">
            <mxPoint x="75" y="740" as="sourcePoint" />
          </mxGeometry>
        </mxCell>
        <mxCell id="NI65FcXABOgf1kVMYgQY-139" style="edgeStyle=orthogonalEdgeStyle;rounded=0;orthogonalLoop=1;jettySize=auto;html=1;exitX=0.5;exitY=1;exitDx=0;exitDy=0;entryX=0.5;entryY=0;entryDx=0;entryDy=0;" edge="1" parent="NI65FcXABOgf1kVMYgQY-119" target="NI65FcXABOgf1kVMYgQY-144">
          <mxGeometry relative="1" as="geometry">
            <mxPoint x="75" y="833" as="sourcePoint" />
          </mxGeometry>
        </mxCell>
        <mxCell id="NI65FcXABOgf1kVMYgQY-141" style="edgeStyle=orthogonalEdgeStyle;rounded=0;orthogonalLoop=1;jettySize=auto;html=1;exitX=0.5;exitY=1;exitDx=0;exitDy=0;entryX=0.5;entryY=0;entryDx=0;entryDy=0;" edge="1" parent="NI65FcXABOgf1kVMYgQY-119" target="NI65FcXABOgf1kVMYgQY-136">
          <mxGeometry relative="1" as="geometry">
            <mxPoint x="75" y="570" as="sourcePoint" />
          </mxGeometry>
        </mxCell>
        <mxCell id="NI65FcXABOgf1kVMYgQY-145" style="edgeStyle=orthogonalEdgeStyle;rounded=0;orthogonalLoop=1;jettySize=auto;html=1;exitX=0.5;exitY=1;exitDx=0;exitDy=0;entryX=0.5;entryY=0;entryDx=0;entryDy=0;" edge="1" parent="NI65FcXABOgf1kVMYgQY-119" source="NI65FcXABOgf1kVMYgQY-146" target="NI65FcXABOgf1kVMYgQY-148">
          <mxGeometry relative="1" as="geometry" />
        </mxCell>
        <mxCell id="NI65FcXABOgf1kVMYgQY-146" value="show piece" style="html=1;whiteSpace=wrap;" vertex="1" parent="NI65FcXABOgf1kVMYgQY-119">
          <mxGeometry x="20" y="350" width="110" height="50" as="geometry" />
        </mxCell>
        <mxCell id="NI65FcXABOgf1kVMYgQY-147" style="edgeStyle=orthogonalEdgeStyle;rounded=0;orthogonalLoop=1;jettySize=auto;html=1;exitX=0.5;exitY=1;exitDx=0;exitDy=0;entryX=0.5;entryY=0;entryDx=0;entryDy=0;" edge="1" parent="NI65FcXABOgf1kVMYgQY-119" source="NI65FcXABOgf1kVMYgQY-148" target="NI65FcXABOgf1kVMYgQY-150">
          <mxGeometry relative="1" as="geometry" />
        </mxCell>
        <mxCell id="NI65FcXABOgf1kVMYgQY-148" value="record" style="html=1;whiteSpace=wrap;" vertex="1" parent="NI65FcXABOgf1kVMYgQY-119">
          <mxGeometry x="20" y="430" width="110" height="50" as="geometry" />
        </mxCell>
        <mxCell id="NI65FcXABOgf1kVMYgQY-166" style="edgeStyle=orthogonalEdgeStyle;rounded=0;orthogonalLoop=1;jettySize=auto;html=1;exitX=0.5;exitY=1;exitDx=0;exitDy=0;" edge="1" parent="NI65FcXABOgf1kVMYgQY-119" source="NI65FcXABOgf1kVMYgQY-150">
          <mxGeometry relative="1" as="geometry">
            <mxPoint x="75" y="590" as="targetPoint" />
          </mxGeometry>
        </mxCell>
        <mxCell id="NI65FcXABOgf1kVMYgQY-150" value="play" style="html=1;whiteSpace=wrap;" vertex="1" parent="NI65FcXABOgf1kVMYgQY-119">
          <mxGeometry x="20" y="510" width="110" height="50" as="geometry" />
        </mxCell>
        <mxCell id="NI65FcXABOgf1kVMYgQY-151" style="edgeStyle=orthogonalEdgeStyle;rounded=0;orthogonalLoop=1;jettySize=auto;html=1;exitX=0.5;exitY=1;exitDx=0;exitDy=0;entryX=0.5;entryY=0;entryDx=0;entryDy=0;" edge="1" parent="NI65FcXABOgf1kVMYgQY-119" source="NI65FcXABOgf1kVMYgQY-152" target="NI65FcXABOgf1kVMYgQY-153">
          <mxGeometry relative="1" as="geometry" />
        </mxCell>
        <mxCell id="NI65FcXABOgf1kVMYgQY-152" value="return to home" style="html=1;whiteSpace=wrap;" vertex="1" parent="NI65FcXABOgf1kVMYgQY-119">
          <mxGeometry x="20" y="850" width="110" height="50" as="geometry" />
        </mxCell>
        <mxCell id="NI65FcXABOgf1kVMYgQY-153" value="" style="ellipse;html=1;shape=endState;fillColor=#000000;strokeColor=#ff0000;" vertex="1" parent="NI65FcXABOgf1kVMYgQY-119">
          <mxGeometry x="60" y="950" width="30" height="30" as="geometry" />
        </mxCell>
        <mxCell id="NI65FcXABOgf1kVMYgQY-154" value="record selected?" style="rhombus;whiteSpace=wrap;html=1;fontColor=#000000;fillColor=#ffffc0;strokeColor=#ff0000;" vertex="1" parent="NI65FcXABOgf1kVMYgQY-119">
          <mxGeometry x="35" y="593" width="80" height="40" as="geometry" />
        </mxCell>
        <mxCell id="NI65FcXABOgf1kVMYgQY-155" value="edit preset?" style="rhombus;whiteSpace=wrap;html=1;fontColor=#000000;fillColor=#ffffc0;strokeColor=#ff0000;" vertex="1" parent="NI65FcXABOgf1kVMYgQY-119">
          <mxGeometry x="35" y="670" width="80" height="40" as="geometry" />
        </mxCell>
        <mxCell id="NI65FcXABOgf1kVMYgQY-156" value="no" style="edgeStyle=orthogonalEdgeStyle;html=1;align=left;verticalAlign=bottom;endArrow=open;endSize=8;strokeColor=#ff0000;rounded=0;" edge="1" parent="NI65FcXABOgf1kVMYgQY-119" source="NI65FcXABOgf1kVMYgQY-155">
          <mxGeometry x="-0.1111" y="-25" relative="1" as="geometry">
            <mxPoint x="75" y="760" as="targetPoint" />
            <mxPoint as="offset" />
          </mxGeometry>
        </mxCell>
        <mxCell id="NI65FcXABOgf1kVMYgQY-157" value="yes" style="edgeStyle=orthogonalEdgeStyle;html=1;align=left;verticalAlign=top;endArrow=open;endSize=8;strokeColor=#ff0000;rounded=0;" edge="1" parent="NI65FcXABOgf1kVMYgQY-119">
          <mxGeometry x="-1" relative="1" as="geometry">
            <mxPoint x="180" y="690" as="targetPoint" />
            <mxPoint x="112.24000000000001" y="690" as="sourcePoint" />
          </mxGeometry>
        </mxCell>
        <mxCell id="NI65FcXABOgf1kVMYgQY-158" style="edgeStyle=orthogonalEdgeStyle;rounded=0;orthogonalLoop=1;jettySize=auto;html=1;exitX=0.5;exitY=1;exitDx=0;exitDy=0;entryX=0.5;entryY=0;entryDx=0;entryDy=0;" edge="1" parent="NI65FcXABOgf1kVMYgQY-119" source="NI65FcXABOgf1kVMYgQY-159" target="NI65FcXABOgf1kVMYgQY-155">
          <mxGeometry relative="1" as="geometry">
            <mxPoint x="80" y="1280" as="targetPoint" />
          </mxGeometry>
        </mxCell>
        <mxCell id="NI65FcXABOgf1kVMYgQY-159" value="receive grade" style="html=1;whiteSpace=wrap;" vertex="1" parent="NI65FcXABOgf1kVMYgQY-119">
          <mxGeometry x="180" y="588" width="110" height="50" as="geometry" />
        </mxCell>
        <mxCell id="NI65FcXABOgf1kVMYgQY-160" value="use same preset?" style="rhombus;whiteSpace=wrap;html=1;fontColor=#000000;fillColor=#ffffc0;strokeColor=#ff0000;" vertex="1" parent="NI65FcXABOgf1kVMYgQY-119">
          <mxGeometry x="35" y="760" width="80" height="40" as="geometry" />
        </mxCell>
        <mxCell id="NI65FcXABOgf1kVMYgQY-161" value="no" style="edgeStyle=orthogonalEdgeStyle;html=1;align=left;verticalAlign=bottom;endArrow=open;endSize=8;strokeColor=#ff0000;rounded=0;" edge="1" parent="NI65FcXABOgf1kVMYgQY-119" source="NI65FcXABOgf1kVMYgQY-160">
          <mxGeometry x="-0.1111" y="-25" relative="1" as="geometry">
            <mxPoint x="75" y="850" as="targetPoint" />
            <mxPoint as="offset" />
          </mxGeometry>
        </mxCell>
        <mxCell id="NI65FcXABOgf1kVMYgQY-162" value="yes" style="edgeStyle=orthogonalEdgeStyle;html=1;align=left;verticalAlign=top;endArrow=open;endSize=8;strokeColor=#ff0000;rounded=0;entryX=1;entryY=0.5;entryDx=0;entryDy=0;" edge="1" parent="NI65FcXABOgf1kVMYgQY-119" target="NI65FcXABOgf1kVMYgQY-146">
          <mxGeometry x="-1" relative="1" as="geometry">
            <mxPoint x="300" y="380" as="targetPoint" />
            <mxPoint x="112.24000000000001" y="780" as="sourcePoint" />
            <Array as="points">
              <mxPoint x="320" y="780" />
              <mxPoint x="320" y="375" />
            </Array>
          </mxGeometry>
        </mxCell>
        <mxCell id="NI65FcXABOgf1kVMYgQY-163" style="edgeStyle=orthogonalEdgeStyle;rounded=0;orthogonalLoop=1;jettySize=auto;html=1;exitX=0.5;exitY=1;exitDx=0;exitDy=0;entryX=0.5;entryY=0;entryDx=0;entryDy=0;" edge="1" parent="NI65FcXABOgf1kVMYgQY-119" source="NI65FcXABOgf1kVMYgQY-164" target="NI65FcXABOgf1kVMYgQY-160">
          <mxGeometry relative="1" as="geometry" />
        </mxCell>
        <mxCell id="NI65FcXABOgf1kVMYgQY-164" value="edit settings" style="html=1;whiteSpace=wrap;" vertex="1" parent="NI65FcXABOgf1kVMYgQY-119">
          <mxGeometry x="180" y="665" width="110" height="50" as="geometry" />
        </mxCell>
        <mxCell id="NI65FcXABOgf1kVMYgQY-173" value="choose triplet practice preset" style="html=1;whiteSpace=wrap;" vertex="1" parent="NI65FcXABOgf1kVMYgQY-119">
          <mxGeometry x="20" y="270" width="110" height="50" as="geometry" />
        </mxCell>
        <mxCell id="NI65FcXABOgf1kVMYgQY-170" value="no" style="edgeStyle=orthogonalEdgeStyle;html=1;align=left;verticalAlign=bottom;endArrow=open;endSize=8;strokeColor=#ff0000;rounded=0;exitX=0.5;exitY=1;exitDx=0;exitDy=0;" edge="1" parent="1" source="NI65FcXABOgf1kVMYgQY-154">
          <mxGeometry x="-0.1111" y="-25" relative="1" as="geometry">
            <mxPoint x="675" y="-740" as="targetPoint" />
            <mxPoint as="offset" />
            <mxPoint x="685" y="-600" as="sourcePoint" />
          </mxGeometry>
        </mxCell>
        <mxCell id="NI65FcXABOgf1kVMYgQY-171" value="yes" style="edgeStyle=orthogonalEdgeStyle;html=1;align=left;verticalAlign=top;endArrow=open;endSize=8;strokeColor=#ff0000;rounded=0;exitX=1;exitY=0.5;exitDx=0;exitDy=0;" edge="1" parent="1" source="NI65FcXABOgf1kVMYgQY-154">
          <mxGeometry x="-1" relative="1" as="geometry">
            <mxPoint x="780" y="-797" as="targetPoint" />
            <mxPoint x="722.24" y="-710" as="sourcePoint" />
          </mxGeometry>
        </mxCell>
      </root>
    </mxGraphModel>
  </diagram>
</mxfile>
